<svg xmlns="http://www.w3.org/2000/svg" width="232" height="40" viewBox="0 0 232 40">
  <metadata><?xpacket begin="﻿" id="W5M0MpCehiHzreSzNTczkc9d"?>
<x:xmpmeta xmlns:x="adobe:ns:meta/" x:xmptk="Adobe XMP Core 5.6-c138 79.159824, 2016/09/14-01:09:01        ">
   <rdf:RDF xmlns:rdf="http://www.w3.org/1999/02/22-rdf-syntax-ns#">
      <rdf:Description rdf:about=""/>
   </rdf:RDF>
</x:xmpmeta>
                                                                                                    
                                                                                                    
                                                                                                    
                                                                                                    
                                                                                                    
                                                                                                    
                                                                                                    
                                                                                                    
                                                                                                    
                                                                                                    
                                                                                                    
                                                                                                    
                                                                                                    
                                                                                                    
                                                                                                    
                                                                                                    
                                                                                                    
                                                                                                    
                                                                                                    
                                                                                                    
                           
<?xpacket end="w"?></metadata>
<defs>
    <style>
      .cls-1 {
        fill: #ff444f;
      }

      .cls-1, .cls-2 {
        fill-rule: evenodd;
      }

      .cls-2 {
        fill: #273044;
      }
    </style>
  </defs>
  <path class="cls-1" d="M0,0H39V32.527a3.679,3.679,0,0,1-3.841,3.465H26.886c0.144,0-7.386,3.932-7.386,4.008,0-.123-7.157-4.008-7.386-4.008H3.84A3.678,3.678,0,0,1,0,32.527V0ZM22.243,20.12H17.554a0.206,0.206,0,0,1-.244-0.219V18.967a0.206,0.206,0,0,1,.244-0.22h1.36V9.627h-0.02l-3.857,8.644a1,1,0,0,1-1.786,0L9.395,9.627H9.355v9.12h1.36a0.217,0.217,0,0,1,.264.22V19.9a0.216,0.216,0,0,1-.264.219H6.046A0.215,0.215,0,0,1,5.782,19.9V18.967a0.216,0.216,0,0,1,.264-0.22H7.589V8.344H6.046a0.216,0.216,0,0,1-.264-0.22V7.192a0.216,0.216,0,0,1,.264-0.22H9.172a0.953,0.953,0,0,1,.954.623l3.024,6.592L14.1,16.495h0.082q0.568-1.429.934-2.272l3.044-6.628a0.968,0.968,0,0,1,.974-0.623h3.106a0.205,0.205,0,0,1,.244.22V8.125a0.205,0.205,0,0,1-.244.22H20.68v10.4h1.563a0.206,0.206,0,0,1,.244.22V19.9a0.2,0.2,0,0,1-.244.219m0.938,8.741H22.044a0.216,0.216,0,0,1-.264-0.22V24.356a0.223,0.223,0,0,1,.264-0.239h1.279a0.213,0.213,0,0,1,.244.239V24.74a1.686,1.686,0,0,0,.467.925,5.883,5.883,0,0,0,.933.944,4.2,4.2,0,0,0,1.249.632,5.223,5.223,0,0,0,1.694.266,4.391,4.391,0,0,0,2.446-.586,1.853,1.853,0,0,0,.883-1.63,1.322,1.322,0,0,0-.5-1.034,3.672,3.672,0,0,0-1.289-.687q-0.792-.256-1.756-0.477t-1.927-.5a10.946,10.946,0,0,1-1.756-.677,3.428,3.428,0,0,1-1.289-1.1,2.806,2.806,0,0,1-.5-1.658,3.1,3.1,0,0,1,1.289-2.546,5.471,5.471,0,0,1,3.46-1.007A5.1,5.1,0,0,1,31,17.048l-0.04-1.135a0.215,0.215,0,0,1,.264-0.219h1.136a0.205,0.205,0,0,1,.244.219v3.992a0.206,0.206,0,0,1-.244.221H31.076a0.206,0.206,0,0,1-.243-0.221V19.392a2.087,2.087,0,0,0-.934-1.52,4.223,4.223,0,0,0-2.74-.769A3.7,3.7,0,0,0,25,17.68a1.739,1.739,0,0,0-.822,1.475,1.426,1.426,0,0,0,.508,1.1A3.728,3.728,0,0,0,26,20.986q0.811,0.274,1.786.5t1.949,0.5a11.3,11.3,0,0,1,1.787.66,3.509,3.509,0,0,1,1.319,1.053,2.545,2.545,0,0,1,.508,1.584,3.281,3.281,0,0,1-1.279,2.656,5.932,5.932,0,0,1-3.815,1.044,6.287,6.287,0,0,1-3.085-.678A5.137,5.137,0,0,1,23.4,26.846l0.02,1.795a0.205,0.205,0,0,1-.243.22"/>
  <path id="MasterStudy" class="cls-2" d="M59.369,26V16.8l4.094,6.256h0.092l4.117-6.3V26h4.439V9.9H67.4l-3.841,6.233L59.714,9.9H55V26h4.37ZM78.4,26l1.15-2.875h6.21L86.936,26H91.72L84.866,9.785h-4.3L73.711,26H78.4Zm4.278-10.925,1.794,4.577H80.864Zm21.381,9.8a4.633,4.633,0,0,0,1.771-3.841,3.846,3.846,0,0,0-1.484-3.277,11.883,11.883,0,0,0-4.519-1.783,9.15,9.15,0,0,1-2.219-.69,0.976,0.976,0,0,1-.564-0.874,0.923,0.923,0,0,1,.414-0.782,2.027,2.027,0,0,1,1.2-.3,7.794,7.794,0,0,1,4.508,1.587l2.231-3.151a10.254,10.254,0,0,0-6.624-2.139,6.781,6.781,0,0,0-4.543,1.438,4.65,4.65,0,0,0-1.69,3.714,4.631,4.631,0,0,0,.437,2.093,3.546,3.546,0,0,0,1.346,1.438,9.4,9.4,0,0,0,1.863.9,24.437,24.437,0,0,0,2.427.679,8.415,8.415,0,0,1,2.162.7,0.973,0.973,0,0,1,.552.839q0,1.15-1.84,1.15a8.194,8.194,0,0,1-5.221-1.932L91.78,23.608a10.907,10.907,0,0,0,7.544,2.668A7.417,7.417,0,0,0,104.062,24.873ZM115.394,26V13.81h4.83V9.9H106.1v3.91h4.83V26h4.462Zm19.669,0v-3.8h-8.648V19.652h7.728V16.133h-7.728V13.7h8.533V9.9H122V26h13.064Zm6.4,0V21.124h1.955L146.659,26h5.152l-3.841-5.612a4.985,4.985,0,0,0,3.312-4.945,5.159,5.159,0,0,0-1.426-3.818A7.132,7.132,0,0,0,144.612,9.9H137V26h4.462Zm0-12.236h2.921a2.879,2.879,0,0,1,1.782.483,1.683,1.683,0,0,1,.633,1.426,1.754,1.754,0,0,1-.633,1.437,2.7,2.7,0,0,1-1.759.518h-2.944V13.764Zm24.865,11.213a4.047,4.047,0,0,0,1.541-3.3,3.651,3.651,0,0,0-1.254-2.932,9.238,9.238,0,0,0-3.99-1.668,9.556,9.556,0,0,1-3.462-1.242,2.241,2.241,0,0,1-.908-1.886,2.32,2.32,0,0,1,.943-1.9,3.885,3.885,0,0,1,2.484-.747,7.2,7.2,0,0,1,4.646,1.748l1.058-1.4a8.779,8.779,0,0,0-5.658-1.978,5.74,5.74,0,0,0-3.795,1.242,3.92,3.92,0,0,0-1.5,3.151,3.709,3.709,0,0,0,1.265,3.013,9.788,9.788,0,0,0,4.14,1.679,8.554,8.554,0,0,1,3.312,1.2,2.248,2.248,0,0,1,.874,1.863,2.432,2.432,0,0,1-.989,2.012,4.109,4.109,0,0,1-2.6.771,7.438,7.438,0,0,1-2.933-.552,9.291,9.291,0,0,1-2.587-1.725l-1.127,1.334a9.575,9.575,0,0,0,6.578,2.576A6.066,6.066,0,0,0,166.326,24.977ZM176.945,26V11.579h5.405V9.9H169.7v1.679h5.405V26h1.84Zm19.244-1.587a7.215,7.215,0,0,0,1.817-5.29V9.9h-1.817v9.361a5.533,5.533,0,0,1-1.288,3.956,5.354,5.354,0,0,1-7.188-.057,5.72,5.72,0,0,1-1.3-4.014V9.9H184.6v9.361a7.01,7.01,0,0,0,1.817,5.163A7.429,7.429,0,0,0,196.189,24.413ZM207.439,26a8.533,8.533,0,0,0,6.152-2.3,7.627,7.627,0,0,0,2.4-5.75,7.637,7.637,0,0,0-2.392-5.761A8.55,8.55,0,0,0,207.439,9.9H201.85V26h5.589Zm-3.772-14.421h3.772a6.579,6.579,0,0,1,4.83,1.817,6.136,6.136,0,0,1,1.84,4.554,6.147,6.147,0,0,1-1.829,4.566,6.588,6.588,0,0,1-4.841,1.806h-3.772V11.579ZM224.727,26V19.606L231.42,9.9H229.3l-5.474,8.05L218.4,9.9h-2.208l6.693,9.729V26h1.84Z"/>
</svg>
